<?xml version="1.0" encoding="UTF-8" standalone="no"?>
<!-- Created with Inkscape (http://www.inkscape.org/) -->
<svg
   xmlns:dc="http://purl.org/dc/elements/1.1/"
   xmlns:cc="http://creativecommons.org/ns#"
   xmlns:rdf="http://www.w3.org/1999/02/22-rdf-syntax-ns#"
   xmlns:svg="http://www.w3.org/2000/svg"
   xmlns="http://www.w3.org/2000/svg"
   xmlns:xlink="http://www.w3.org/1999/xlink"
   xmlns:sodipodi="http://sodipodi.sourceforge.net/DTD/sodipodi-0.dtd"
   xmlns:inkscape="http://www.inkscape.org/namespaces/inkscape"
   width="210mm"
   height="297mm"
   id="svg2746"
   sodipodi:version="0.32"
   inkscape:version="0.46"
   sodipodi:docbase="/home/jgoday/kde/src/KDE/kdenetwork/kget/plasma/applet"
   sodipodi:docname="kget.svg"
   inkscape:output_extension="org.inkscape.output.svg.inkscape">
  <sodipodi:namedview
     id="base"
     pagecolor="#000000"
     bordercolor="#666666"
     borderopacity="1.0"
     inkscape:pageopacity="0.92941176"
     inkscape:pageshadow="2"
     inkscape:zoom="1"
     inkscape:cx="350"
     inkscape:cy="747.03878"
     inkscape:document-units="px"
     inkscape:current-layer="layer1"
     inkscape:window-width="1270"
     inkscape:window-height="744"
     inkscape:window-x="0"
     inkscape:window-y="25"
     showgrid="false" />
  <defs
     id="defs2748">
    <inkscape:perspective
       id="perspective122"
       inkscape:persp3d-origin="372.04724 : 350.78739 : 1"
       inkscape:vp_z="744.09448 : 526.18109 : 1"
       inkscape:vp_y="0 : 1000 : 0"
       inkscape:vp_x="0 : 526.18109 : 1"
       sodipodi:type="inkscape:persp3d" />
    <linearGradient
       y2="121.21664"
       x2="268.59967"
       y1="20.470779"
       x1="268.59967"
       gradientUnits="userSpaceOnUse"
       id="linearGradient2744"
       xlink:href="#linearGradient2691"
       inkscape:collect="always" />
    <linearGradient
       y2="116.66901"
       x2="280.0307"
       y1="130.42252"
       x1="280.0307"
       gradientTransform="translate(6.9602016e-2,1.4443191)"
       gradientUnits="userSpaceOnUse"
       id="linearGradient2742"
       xlink:href="#linearGradient2691"
       inkscape:collect="always" />
    <linearGradient
       id="linearGradient2691">
      <stop
         id="stop2693"
         offset="0"
         style="stop-color:#cc00cc;stop-opacity:0.44329897;" />
      <stop
         id="stop2695"
         offset="1"
         style="stop-color:#cc00cc;stop-opacity:0;" />
    </linearGradient>
    <linearGradient
       y2="136.85341"
       x2="268.01456"
       y1="96.017273"
       x1="268.01456"
       gradientUnits="userSpaceOnUse"
       id="linearGradient2740"
       xlink:href="#linearGradient2691"
       inkscape:collect="always" />
    <linearGradient
       gradientTransform="translate(-484,-674)"
       y2="677.06049"
       x2="538.77338"
       y1="675.48541"
       x1="538.77338"
       gradientUnits="userSpaceOnUse"
       id="XMLID_16_">
      <stop
         id="stop146"
         style="stop-color:#ff00ff"
         offset="0" />
      <stop
         id="stop148"
         style="stop-color:#000000"
         offset="1" />
    </linearGradient>
    <radialGradient
       gradientUnits="userSpaceOnUse"
       gradientTransform="translate(-484,-674)"
       r="126.0234"
       cy="651.10352"
       cx="538.77338"
       id="XMLID_15_">
      <stop
         id="stop137"
         style="stop-color:#cc00ac"
         offset="0" />
      <stop
         id="stop139"
         style="stop-color:#3b002a"
         offset="0.5393" />
      <stop
         id="stop141"
         style="stop-color:#910051"
         offset="1" />
    </radialGradient>
    <linearGradient
       gradientTransform="translate(-484,-674)"
       y2="789.12207"
       x2="538.77338"
       y1="677.87701"
       x1="538.77338"
       gradientUnits="userSpaceOnUse"
       id="XMLID_14_">
      <stop
         id="stop122"
         style="stop-color:#1e0027"
         offset="0.0056" />
      <stop
         id="stop124"
         style="stop-color:#3b002a"
         offset="0.1348" />
      <stop
         id="stop126"
         style="stop-color:#b8007f"
         offset="0.4831" />
      <stop
         id="stop128"
         style="stop-color:#a9006e"
         offset="0.6299" />
      <stop
         id="stop130"
         style="stop-color:#970059"
         offset="0.8528" />
      <stop
         id="stop132"
         style="stop-color:#910051"
         offset="1" />
    </linearGradient>
    <radialGradient
       gradientUnits="userSpaceOnUse"
       gradientTransform="translate(-484,-674)"
       r="121.5466"
       cy="792.99609"
       cx="538.77252"
       id="XMLID_13_">
      <stop
         id="stop83"
         style="stop-color:#ff00b3"
         offset="0" />
      <stop
         id="stop85"
         style="stop-color:#df009f"
         offset="0.0494" />
      <stop
         id="stop87"
         style="stop-color:#c3008d"
         offset="0.1049" />
      <stop
         id="stop89"
         style="stop-color:#ae0080"
         offset="0.1605" />
      <stop
         id="stop91"
         style="stop-color:#a20079"
         offset="0.2156" />
      <stop
         id="stop93"
         style="stop-color:#9e0076"
         offset="0.2697" />
      <stop
         id="stop95"
         style="stop-color:#3b002a"
         offset="0.3989" />
      <stop
         id="stop97"
         style="stop-color:#3b002a"
         offset="0.3995" />
      <stop
         id="stop99"
         style="stop-color:#250026"
         offset="0.4484" />
      <stop
         id="stop101"
         style="stop-color:#160024"
         offset="0.4956" />
      <stop
         id="stop103"
         style="stop-color:#0c0023"
         offset="0.54" />
      <stop
         id="stop105"
         style="stop-color:#090022"
         offset="0.5787" />
      <stop
         id="stop107"
         style="stop-color:#160027"
         offset="0.5948" />
      <stop
         id="stop109"
         style="stop-color:#380033"
         offset="0.6456" />
      <stop
         id="stop111"
         style="stop-color:#51003c"
         offset="0.6932" />
      <stop
         id="stop113"
         style="stop-color:#610042"
         offset="0.7359" />
      <stop
         id="stop115"
         style="stop-color:#660044"
         offset="0.7697" />
      <stop
         id="stop117"
         style="stop-color:#090022"
         offset="1" />
    </radialGradient>
    <linearGradient
       id="XMLID_12_"
       gradientUnits="userSpaceOnUse"
       x1="497.81451"
       y1="732.4082"
       x2="497.81451"
       y2="736.62341"
       gradientTransform="translate(-484,-674)">
      <stop
         offset="0"
         style="stop-color:#090022"
         id="stop68" />
      <stop
         offset="1"
         style="stop-color:#9e0076"
         id="stop70" />
    </linearGradient>
    <linearGradient
       id="XMLID_11_"
       gradientUnits="userSpaceOnUse"
       x1="579.72852"
       y1="732.41022"
       x2="579.72852"
       y2="736.55688"
       gradientTransform="translate(-484,-674)">
      <stop
         offset="0"
         style="stop-color:#090022"
         id="stop61" />
      <stop
         offset="1"
         style="stop-color:#9e0076"
         id="stop63" />
    </linearGradient>
    <linearGradient
       id="XMLID_10_"
       gradientUnits="userSpaceOnUse"
       x1="538.77338"
       y1="674"
       x2="538.77338"
       y2="678.3681"
       gradientTransform="translate(-484,-674)">
      <stop
         offset="0"
         style="stop-color:#090022"
         id="stop54" />
      <stop
         offset="1"
         style="stop-color:#9e0076"
         id="stop56" />
    </linearGradient>
    <linearGradient
       gradientTransform="translate(-484,-674)"
       y2="674"
       x2="538.77338"
       y1="793"
       x1="538.77338"
       gradientUnits="userSpaceOnUse"
       id="XMLID_9_">
      <stop
         id="stop7"
         style="stop-color:#090022"
         offset="0" />
      <stop
         id="stop9"
         style="stop-color:#090022"
         offset="0.1124" />
      <stop
         id="stop11"
         style="stop-color:#1e0027"
         offset="0.4045" />
      <stop
         id="stop13"
         style="stop-color:#210029"
         offset="0.4231" />
      <stop
         id="stop15"
         style="stop-color:#2a0031"
         offset="0.4369" />
      <stop
         id="stop17"
         style="stop-color:#3a003d"
         offset="0.4491" />
      <stop
         id="stop19"
         style="stop-color:#51004e"
         offset="0.4605" />
      <stop
         id="stop21"
         style="stop-color:#6e0064"
         offset="0.4712" />
      <stop
         id="stop23"
         style="stop-color:#920080"
         offset="0.4814" />
      <stop
         id="stop25"
         style="stop-color:#bc00a0"
         offset="0.4911" />
      <stop
         id="stop27"
         style="stop-color:#cc00ac"
         offset="0.4944" />
      <stop
         id="stop29"
         style="stop-color:#a40090"
         offset="0.5124" />
      <stop
         id="stop31"
         style="stop-color:#800076"
         offset="0.5326" />
      <stop
         id="stop33"
         style="stop-color:#60005f"
         offset="0.5552" />
      <stop
         id="stop35"
         style="stop-color:#44004c"
         offset="0.5803" />
      <stop
         id="stop37"
         style="stop-color:#2e003c"
         offset="0.6086" />
      <stop
         id="stop39"
         style="stop-color:#1d0031"
         offset="0.6416" />
      <stop
         id="stop41"
         style="stop-color:#120028"
         offset="0.6825" />
      <stop
         id="stop43"
         style="stop-color:#0b0023"
         offset="0.7398" />
      <stop
         id="stop45"
         style="stop-color:#090022"
         offset="0.8989" />
      <stop
         id="stop47"
         style="stop-color:#9e0076"
         offset="1" />
    </linearGradient>
    <linearGradient
       id="linearGradient3291">
      <stop
         id="stop3293"
         offset="0"
         style="stop-color:#000000;stop-opacity:1" />
      <stop
         id="stop3295"
         offset="1"
         style="stop-color:#000000;stop-opacity:0" />
    </linearGradient>
    <radialGradient
       r="61.056499"
       fy="76.883453"
       fx="61.056499"
       cy="76.883453"
       cx="61.056499"
       gradientTransform="matrix(0.3826327,0,0,0.1870731,139.91164,138.18634)"
       gradientUnits="userSpaceOnUse"
       id="radialGradient6307"
       xlink:href="#linearGradient3291"
       inkscape:collect="always" />
    <linearGradient
       y2="674"
       x2="538.77338"
       y1="793"
       x1="538.77338"
       gradientTransform="matrix(0.6760789,0,0,0.6114931,-201.79458,-327.09916)"
       gradientUnits="userSpaceOnUse"
       id="linearGradient6309"
       xlink:href="#XMLID_9_"
       inkscape:collect="always" />
    <linearGradient
       y2="678.3681"
       x2="538.77338"
       y1="674"
       x1="538.77338"
       gradientTransform="translate(-484,-674)"
       gradientUnits="userSpaceOnUse"
       id="linearGradient6311"
       xlink:href="#XMLID_10_"
       inkscape:collect="always" />
    <linearGradient
       y2="736.55688"
       x2="579.72852"
       y1="732.41022"
       x1="579.72852"
       gradientTransform="translate(-484,-674)"
       gradientUnits="userSpaceOnUse"
       id="linearGradient6313"
       xlink:href="#XMLID_11_"
       inkscape:collect="always" />
    <linearGradient
       y2="736.62341"
       x2="497.81451"
       y1="732.4082"
       x1="497.81451"
       gradientTransform="translate(-484,-674)"
       gradientUnits="userSpaceOnUse"
       id="linearGradient6315"
       xlink:href="#XMLID_12_"
       inkscape:collect="always" />
    <radialGradient
       r="121.5466"
       cy="792.99609"
       cx="538.77252"
       gradientTransform="matrix(0.6760789,0,0,0.6114931,-201.79458,-327.09916)"
       gradientUnits="userSpaceOnUse"
       id="radialGradient6317"
       xlink:href="#XMLID_13_"
       inkscape:collect="always" />
    <linearGradient
       y2="789.12207"
       x2="538.77338"
       y1="677.87701"
       x1="538.77338"
       gradientTransform="matrix(0.6760789,0,0,0.6114931,-201.79458,-327.09916)"
       gradientUnits="userSpaceOnUse"
       id="linearGradient6319"
       xlink:href="#XMLID_14_"
       inkscape:collect="always" />
    <radialGradient
       r="126.0234"
       fy="651.10352"
       fx="538.77338"
       cy="651.10352"
       cx="538.77338"
       gradientTransform="matrix(0.675059,0,0,0.7073559,-201.24505,-390.66345)"
       gradientUnits="userSpaceOnUse"
       id="radialGradient6321"
       xlink:href="#XMLID_15_"
       inkscape:collect="always" />
    <linearGradient
       y2="677.06049"
       x2="538.77338"
       y1="675.48541"
       x1="538.77338"
       gradientTransform="matrix(0.6760789,0,0,0.6114931,-201.79458,-327.09916)"
       gradientUnits="userSpaceOnUse"
       id="linearGradient6323"
       xlink:href="#XMLID_16_"
       inkscape:collect="always" />
    <linearGradient
       gradientTransform="matrix(0.5765167,0,0,0.5765167,157.72862,235.94832)"
       y2="121.21664"
       x2="268.59967"
       y1="20.470779"
       x1="268.59967"
       gradientUnits="userSpaceOnUse"
       id="linearGradient6331"
       xlink:href="#linearGradient2691"
       inkscape:collect="always" />
    <radialGradient
       r="61.056499"
       fy="76.883453"
       fx="61.056499"
       cy="76.883453"
       cx="61.056499"
       gradientTransform="matrix(0.3826327,0,0,0.1870731,139.91164,138.18634)"
       gradientUnits="userSpaceOnUse"
       id="radialGradient6307-102"
       xlink:href="#linearGradient3291-596"
       inkscape:collect="always" />
    <linearGradient
       id="linearGradient3291-596">
      <stop
         id="stop2585"
         offset="0"
         style="stop-color:#000000;stop-opacity:1" />
      <stop
         id="stop2587"
         offset="1"
         style="stop-color:#000000;stop-opacity:0" />
    </linearGradient>
    <linearGradient
       y2="674"
       x2="538.77338"
       y1="793"
       x1="538.77338"
       gradientTransform="matrix(0.6760789,0,0,0.6114931,-201.79458,-327.09916)"
       gradientUnits="userSpaceOnUse"
       id="linearGradient6309-971"
       xlink:href="#XMLID_9_-428"
       inkscape:collect="always" />
    <linearGradient
       gradientTransform="translate(-484,-674)"
       y2="674"
       x2="538.77338"
       y1="793"
       x1="538.77338"
       gradientUnits="userSpaceOnUse"
       id="XMLID_9_-428">
      <stop
         id="stop2591"
         style="stop-color:#090022"
         offset="0" />
      <stop
         id="stop2593"
         style="stop-color:#090022"
         offset="0.1124" />
      <stop
         id="stop2595"
         style="stop-color:#1e0027"
         offset="0.4045" />
      <stop
         id="stop2597"
         style="stop-color:#210029"
         offset="0.4231" />
      <stop
         id="stop2599"
         style="stop-color:#2a0031"
         offset="0.4369" />
      <stop
         id="stop2601"
         style="stop-color:#3a003d"
         offset="0.4491" />
      <stop
         id="stop2603"
         style="stop-color:#51004e"
         offset="0.4605" />
      <stop
         id="stop2605"
         style="stop-color:#6e0064"
         offset="0.4712" />
      <stop
         id="stop2607"
         style="stop-color:#920080"
         offset="0.4814" />
      <stop
         id="stop2609"
         style="stop-color:#bc00a0"
         offset="0.4911" />
      <stop
         id="stop2611"
         style="stop-color:#cc00ac"
         offset="0.4944" />
      <stop
         id="stop2613"
         style="stop-color:#a40090"
         offset="0.5124" />
      <stop
         id="stop2615"
         style="stop-color:#800076"
         offset="0.5326" />
      <stop
         id="stop2617"
         style="stop-color:#60005f"
         offset="0.5552" />
      <stop
         id="stop2619"
         style="stop-color:#44004c"
         offset="0.5803" />
      <stop
         id="stop2621"
         style="stop-color:#2e003c"
         offset="0.6086" />
      <stop
         id="stop2623"
         style="stop-color:#1d0031"
         offset="0.6416" />
      <stop
         id="stop2625"
         style="stop-color:#120028"
         offset="0.6825" />
      <stop
         id="stop2627"
         style="stop-color:#0b0023"
         offset="0.7398" />
      <stop
         id="stop2629"
         style="stop-color:#090022"
         offset="0.8989" />
      <stop
         id="stop2631"
         style="stop-color:#9e0076"
         offset="1" />
    </linearGradient>
    <linearGradient
       y2="678.3681"
       x2="538.77338"
       y1="674"
       x1="538.77338"
       gradientTransform="translate(-484,-674)"
       gradientUnits="userSpaceOnUse"
       id="linearGradient6311-857"
       xlink:href="#XMLID_10_-517"
       inkscape:collect="always" />
    <linearGradient
       id="XMLID_10_-517"
       gradientUnits="userSpaceOnUse"
       x1="538.77338"
       y1="674"
       x2="538.77338"
       y2="678.3681"
       gradientTransform="translate(-484,-674)">
      <stop
         offset="0"
         style="stop-color:#090022"
         id="stop2635" />
      <stop
         offset="1"
         style="stop-color:#9e0076"
         id="stop2637" />
    </linearGradient>
    <linearGradient
       y2="736.55688"
       x2="579.72852"
       y1="732.41022"
       x1="579.72852"
       gradientTransform="translate(-484,-674)"
       gradientUnits="userSpaceOnUse"
       id="linearGradient6313-408"
       xlink:href="#XMLID_11_-204"
       inkscape:collect="always" />
    <linearGradient
       id="XMLID_11_-204"
       gradientUnits="userSpaceOnUse"
       x1="579.72852"
       y1="732.41022"
       x2="579.72852"
       y2="736.55688"
       gradientTransform="translate(-484,-674)">
      <stop
         offset="0"
         style="stop-color:#090022"
         id="stop2641" />
      <stop
         offset="1"
         style="stop-color:#9e0076"
         id="stop2643" />
    </linearGradient>
    <linearGradient
       y2="736.62341"
       x2="497.81451"
       y1="732.4082"
       x1="497.81451"
       gradientTransform="translate(-484,-674)"
       gradientUnits="userSpaceOnUse"
       id="linearGradient6315-41"
       xlink:href="#XMLID_12_-899"
       inkscape:collect="always" />
    <linearGradient
       id="XMLID_12_-899"
       gradientUnits="userSpaceOnUse"
       x1="497.81451"
       y1="732.4082"
       x2="497.81451"
       y2="736.62341"
       gradientTransform="translate(-484,-674)">
      <stop
         offset="0"
         style="stop-color:#090022"
         id="stop2647" />
      <stop
         offset="1"
         style="stop-color:#9e0076"
         id="stop2649" />
    </linearGradient>
    <radialGradient
       r="121.5466"
       cy="792.99609"
       cx="538.77252"
       gradientTransform="matrix(0.6760789,0,0,0.6114931,-201.79458,-327.09916)"
       gradientUnits="userSpaceOnUse"
       id="radialGradient6317-975"
       xlink:href="#XMLID_13_-987"
       inkscape:collect="always" />
    <radialGradient
       gradientUnits="userSpaceOnUse"
       gradientTransform="translate(-484,-674)"
       r="121.5466"
       cy="792.99609"
       cx="538.77252"
       id="XMLID_13_-987">
      <stop
         id="stop2653"
         style="stop-color:#ff00b3"
         offset="0" />
      <stop
         id="stop2655"
         style="stop-color:#df009f"
         offset="0.0494" />
      <stop
         id="stop2657"
         style="stop-color:#c3008d"
         offset="0.1049" />
      <stop
         id="stop2659"
         style="stop-color:#ae0080"
         offset="0.1605" />
      <stop
         id="stop2661"
         style="stop-color:#a20079"
         offset="0.2156" />
      <stop
         id="stop2663"
         style="stop-color:#9e0076"
         offset="0.2697" />
      <stop
         id="stop2665"
         style="stop-color:#3b002a"
         offset="0.3989" />
      <stop
         id="stop2667"
         style="stop-color:#3b002a"
         offset="0.3995" />
      <stop
         id="stop2669"
         style="stop-color:#250026"
         offset="0.4484" />
      <stop
         id="stop2671"
         style="stop-color:#160024"
         offset="0.4956" />
      <stop
         id="stop2673"
         style="stop-color:#0c0023"
         offset="0.54" />
      <stop
         id="stop2675"
         style="stop-color:#090022"
         offset="0.5787" />
      <stop
         id="stop2677"
         style="stop-color:#160027"
         offset="0.5948" />
      <stop
         id="stop2679"
         style="stop-color:#380033"
         offset="0.6456" />
      <stop
         id="stop2681"
         style="stop-color:#51003c"
         offset="0.6932" />
      <stop
         id="stop2683"
         style="stop-color:#610042"
         offset="0.7359" />
      <stop
         id="stop2685"
         style="stop-color:#660044"
         offset="0.7697" />
      <stop
         id="stop2687"
         style="stop-color:#090022"
         offset="1" />
    </radialGradient>
    <linearGradient
       y2="789.12207"
       x2="538.77338"
       y1="677.87701"
       x1="538.77338"
       gradientTransform="matrix(0.6760789,0,0,0.6114931,-201.79458,-327.09916)"
       gradientUnits="userSpaceOnUse"
       id="linearGradient6319-520"
       xlink:href="#XMLID_14_-295"
       inkscape:collect="always" />
    <linearGradient
       gradientTransform="translate(-484,-674)"
       y2="789.12207"
       x2="538.77338"
       y1="677.87701"
       x1="538.77338"
       gradientUnits="userSpaceOnUse"
       id="XMLID_14_-295">
      <stop
         id="stop2691"
         style="stop-color:#1e0027"
         offset="0.0056" />
      <stop
         id="stop2694"
         style="stop-color:#3b002a"
         offset="0.1348" />
      <stop
         id="stop2696"
         style="stop-color:#b8007f"
         offset="0.4831" />
      <stop
         id="stop2698"
         style="stop-color:#a9006e"
         offset="0.6299" />
      <stop
         id="stop2700"
         style="stop-color:#970059"
         offset="0.8528" />
      <stop
         id="stop2702"
         style="stop-color:#910051"
         offset="1" />
    </linearGradient>
    <radialGradient
       r="126.0234"
       fy="651.10352"
       fx="538.77338"
       cy="651.10352"
       cx="538.77338"
       gradientTransform="matrix(0.675059,0,0,0.7073559,-201.24505,-390.66345)"
       gradientUnits="userSpaceOnUse"
       id="radialGradient6321-709"
       xlink:href="#XMLID_15_-458"
       inkscape:collect="always" />
    <radialGradient
       gradientUnits="userSpaceOnUse"
       gradientTransform="translate(-484,-674)"
       r="126.0234"
       cy="651.10352"
       cx="538.77338"
       id="XMLID_15_-458">
      <stop
         id="stop2706"
         style="stop-color:#cc00ac"
         offset="0" />
      <stop
         id="stop2708"
         style="stop-color:#3b002a"
         offset="0.5393" />
      <stop
         id="stop2710"
         style="stop-color:#910051"
         offset="1" />
    </radialGradient>
    <linearGradient
       y2="677.06049"
       x2="538.77338"
       y1="675.48541"
       x1="538.77338"
       gradientTransform="matrix(0.6760789,0,0,0.6114931,-201.79458,-327.09916)"
       gradientUnits="userSpaceOnUse"
       id="linearGradient6323-717"
       xlink:href="#XMLID_16_-190"
       inkscape:collect="always" />
    <linearGradient
       gradientTransform="translate(-484,-674)"
       y2="677.06049"
       x2="538.77338"
       y1="675.48541"
       x1="538.77338"
       gradientUnits="userSpaceOnUse"
       id="XMLID_16_-190">
      <stop
         id="stop2714"
         style="stop-color:#ff00ff"
         offset="0" />
      <stop
         id="stop2716"
         style="stop-color:#000000"
         offset="1" />
    </linearGradient>
  </defs>
  <metadata
     id="metadata2751">
    <rdf:RDF>
      <cc:Work
         rdf:about="">
        <dc:format>image/svg+xml</dc:format>
        <dc:type
           rdf:resource="http://purl.org/dc/dcmitype/StillImage" />
      </cc:Work>
    </rdf:RDF>
  </metadata>
  <g
     id="layer1"
     inkscape:groupmode="layer"
     inkscape:label="Capa 1">
    <path
       inkscape:label="#path2323"
       id="line"
       d="M 62.793969,155.9241 L 320.46579,155.9241"
       style="fill:none;fill-rule:evenodd;stroke:#ff00ff;stroke-width:1px;stroke-linecap:butt;stroke-linejoin:miter;stroke-opacity:1" />
    <g
       transform="matrix(0.7406514,0,0,0.6432437,4.9555017,26.128722)"
       inkscape:label="#g6392"
       id="title">
      <g
         transform="matrix(0.6152898,0,0,0.540187,-57.489001,24.923727)"
         id="g6281">
        <path
           transform="translate(-0.9391258,3.2869433)"
           d="M 186.63606,152.56915 C 186.63606,158.87738 176.17644,163.99118 163.27385,163.99118 C 150.37126,163.99118 139.91164,158.87738 139.91164,152.56915 C 139.91164,146.26095 150.37126,141.14715 163.27385,141.14715 C 176.17644,141.14715 186.63606,146.26095 186.63606,152.56915 L 186.63606,152.56915 z "
           style="opacity:0.6;fill:url(#radialGradient6307-102);fill-opacity:1;fill-rule:nonzero;stroke:none;stroke-width:0;stroke-linecap:round;stroke-linejoin:round;stroke-miterlimit:4;stroke-dasharray:none;stroke-dashoffset:4;stroke-opacity:1"
           id="path4543" />
        <path
           transform="translate(-0.9391258,3.2869433)"
           id="path49"
           d="M 146.72815,85.047185 C 145.2827,85.047185 144.10699,86.111183 144.10699,87.418555 C 144.10699,87.418555 144.10699,118.55273 144.10699,120.76327 C 141.86647,120.76327 128.04944,120.76327 128.04944,120.76327 C 126.99544,120.76327 126.04893,121.33013 125.63719,122.20701 C 125.63652,122.20946 125.42761,123.13464 125.42761,123.13464 C 125.42761,123.75164 125.6879,124.33623 126.16116,124.77956 L 160.57019,157.08841 C 161.06103,157.54948 161.74995,157.81486 162.45848,157.81486 C 163.16769,157.81486 163.85526,157.54948 164.34677,157.08841 L 198.75648,124.77956 C 199.48732,124.09285 199.69353,123.0845 199.28112,122.20701 C 198.86736,121.32891 197.92085,120.76389 196.86819,120.76389 C 196.86819,120.76389 183.05117,120.76389 180.81064,120.76389 C 180.81064,118.55273 180.81064,87.419167 180.81064,87.419167 C 180.80997,86.111183 179.63426,85.047185 178.18881,85.047185 L 146.72815,85.047185 z "
           style="fill:url(#linearGradient6309-971)" />
        <g
           transform="matrix(0.6760789,0,0,0.6114931,124.48848,88.334129)"
           id="g51">
          <linearGradient
             gradientTransform="translate(-484,-674)"
             y2="678.3681"
             x2="538.77338"
             y1="674"
             x1="538.77338"
             gradientUnits="userSpaceOnUse"
             id="linearGradient4283">
            <stop
               id="stop4285"
               style="stop-color:#090022"
               offset="0" />
            <stop
               id="stop4287"
               style="stop-color:#9e0076"
               offset="1" />
          </linearGradient>
          <path
             id="path58"
             d="M 31.506,0.486 L 78.04,0.486 C 80.18,0.486 81.918,2.225 81.918,4.363 C 81.918,4.051 81.918,3.878 81.918,3.878 C 81.917,1.74 80.178,0 78.04,0 L 31.506,0 C 29.368,0 27.629,1.74 27.629,3.878 C 27.629,3.878 27.629,4.051 27.629,4.363 C 27.629,2.225 29.368,0.486 31.506,0.486 z "
             style="fill:url(#linearGradient6311-857)" />
          <linearGradient
             gradientTransform="translate(-484,-674)"
             y2="736.55688"
             x2="579.72852"
             y1="732.41022"
             x1="579.72852"
             gradientUnits="userSpaceOnUse"
             id="linearGradient4290">
            <stop
               id="stop4292"
               style="stop-color:#090022"
               offset="0" />
            <stop
               id="stop4294"
               style="stop-color:#9e0076"
               offset="1" />
          </linearGradient>
          <path
             id="path65"
             d="M 81.917,58.894 C 85.23,58.894 105.668,58.894 105.668,58.894 C 107.227,58.894 108.625,59.82 109.236,61.255 C 109.415,61.675 109.506,62.111 109.531,62.551 C 109.572,61.954 109.48,61.344 109.236,60.77 C 108.625,59.335 107.224,58.411 105.668,58.411 C 105.668,58.411 85.23,58.411 81.917,58.411 C 81.917,58.616 81.917,58.779 81.917,58.894 z "
             style="fill:url(#linearGradient6313-408)" />
          <linearGradient
             gradientTransform="translate(-484,-674)"
             y2="736.62341"
             x2="497.81451"
             y1="732.4082"
             x1="497.81451"
             gradientUnits="userSpaceOnUse"
             id="linearGradient4297">
            <stop
               id="stop4299"
               style="stop-color:#090022"
               offset="0" />
            <stop
               id="stop4301"
               style="stop-color:#9e0076"
               offset="1" />
          </linearGradient>
          <path
             id="path72"
             d="M 0.309,61.256 C 0.918,59.821 2.319,58.894 3.877,58.894 C 3.877,58.894 24.314,58.894 27.628,58.894 C 27.628,58.779 27.628,58.616 27.628,58.408 C 24.314,58.408 3.877,58.408 3.877,58.408 C 2.318,58.408 0.918,59.335 0.309,60.769 C 0.309,60.773 0,62.286 0,62.286 C 0,62.398 0.022,62.507 0.032,62.616 C 0.109,62.239 0.309,61.258 0.309,61.256 z "
             style="fill:url(#linearGradient6315-41)" />
        </g>
        <path
           transform="translate(-0.9391258,3.2869433)"
           id="path74"
           d="M 180.80997,122.91206 C 183.04982,122.91206 196.86752,122.91206 196.86752,122.91206 C 197.92152,122.91206 198.86668,123.4783 199.27977,124.3558 C 199.30343,124.40716 199.31965,124.46097 199.33994,124.51295 C 199.55155,123.96505 199.54141,123.35601 199.27977,122.80016 C 198.86668,121.92267 197.91949,121.35642 196.86752,121.35642 C 196.86752,121.35642 183.04982,121.35642 180.80997,121.35642 C 180.80997,122.13975 180.80997,122.68275 180.80997,122.91206 z "
           enable-background="new    "
           style="opacity:0.5;fill:#ff00ff" />
        <path
           transform="translate(-0.9391258,3.2869433)"
           id="path76"
           d="M 125.63652,124.35641 C 126.04825,123.47769 126.99544,122.91206 128.04877,122.91206 C 128.04877,122.91206 141.86579,122.91206 144.10632,122.91206 C 144.10632,122.68275 144.10632,122.13975 144.10632,121.35642 C 141.86579,121.35642 128.04877,121.35642 128.04877,121.35642 C 126.99476,121.35642 126.04825,121.92328 125.63652,122.80077 C 125.63652,122.8026 125.42761,123.72779 125.42761,123.72779 C 125.42761,124.01214 125.48846,124.28547 125.59393,124.54536 C 125.61894,124.43651 125.63652,124.35702 125.63652,124.35641 z "
           enable-background="new    "
           style="opacity:0.5;fill:#ff00ff" />
        <path
           transform="translate(-0.9391258,3.2869433)"
           id="path78"
           d="M 196.86752,121.35642 C 196.86752,121.35642 183.44465,121.35642 180.15417,121.35642 C 179.79179,121.35642 179.4977,121.09103 179.4977,120.76327 L 179.4977,121.35642 C 179.4977,121.5307 179.4977,122.14403 179.4977,122.31891 C 180.70315,122.31891 196.86549,122.31891 196.86549,122.31891 C 197.44286,122.31891 197.98237,121.88292 198.46441,122.12813 C 198.10474,121.65728 197.51993,121.35642 196.86752,121.35642 z "
           style="fill:#ff00ff" />
        <path
           transform="translate(-0.9391258,3.2869433)"
           id="path80"
           d="M 144.76211,121.35642 C 141.47164,121.35642 128.04877,121.35642 128.04877,121.35642 C 127.39635,121.35642 126.81222,121.65667 126.44984,122.12874 C 126.93121,121.88414 127.4714,122.31952 128.04877,122.31952 C 128.04877,122.31952 144.21179,122.31952 145.41724,122.31952 C 145.41724,122.14464 145.41724,121.53131 145.41724,121.35703 L 145.41724,120.76389 C 145.41791,121.09103 145.12449,121.35642 144.76211,121.35642 z "
           style="fill:#ff00ff" />
        <path
           transform="translate(-0.9391258,3.2869433)"
           id="path119"
           d="M 146.72815,86.23287 C 146.00475,86.23287 145.41791,86.763646 145.41791,87.418555 C 145.41791,87.418555 145.41791,119.73291 145.41791,121.94957 C 143.15102,121.94957 128.04944,121.94957 128.04944,121.94957 C 127.52413,121.94957 127.04885,122.23392 126.84332,122.67113 C 126.77301,122.82034 126.73853,122.9781 126.73853,123.13587 C 126.73853,123.4355 126.86563,123.73452 127.10496,123.95894 L 161.514,156.26779 C 161.76144,156.50077 162.10219,156.63224 162.4578,156.63224 C 162.81342,156.63224 163.15484,156.50077 163.40161,156.26779 L 197.81132,123.95894 C 198.17573,123.61528 198.27714,123.10896 198.07364,122.67236 C 197.86676,122.23514 197.39283,121.95079 196.86752,121.95079 C 196.86752,121.95079 181.76527,121.95079 179.49972,121.95079 C 179.49972,119.73413 179.49972,87.419167 179.49972,87.419167 C 179.49972,86.764258 178.91221,86.233482 178.18948,86.233482 L 146.72815,86.23287 L 146.72815,86.23287 z "
           style="fill:url(#radialGradient6317-975)" />
        <path
           transform="translate(-0.9391258,3.2869433)"
           sodipodi:nodetypes="cccccccc"
           id="polygon134"
           d="M 177.3122,123.13464 L 177.3122,87.418555 L 147.60476,87.418555 L 147.60476,123.13464 L 128.04877,123.13464 L 162.45848,155.44349 L 196.86752,123.13464 L 177.3122,123.13464 z "
           style="fill:url(#linearGradient6319-520)" />
        <path
           transform="translate(-0.9391258,3.2869433)"
           id="path143"
           d="M 151.13007,90.277483 C 151.13007,95.531188 151.13007,124.79585 151.13007,124.79585 C 151.13007,126.52174 149.79542,127.92023 148.14896,127.92023 C 148.14896,127.92023 143.00535,127.92023 138.16742,127.92023 C 144.54357,134.85665 159.35565,150.96835 162.45916,154.34472 C 165.56266,150.96835 180.37535,134.85665 186.75089,127.92023 C 181.91235,127.92023 176.76936,127.92023 176.76936,127.92023 C 175.12227,127.92023 173.78763,126.52174 173.78763,124.79585 C 173.78763,124.79585 173.78763,95.531188 173.78763,90.277483 C 169.55798,90.277483 155.35849,90.277483 151.13007,90.277483 z "
           style="fill:url(#radialGradient6321-709)" />
        <path
           transform="translate(-0.9391258,3.2869433)"
           id="path150"
           d="M 146.72815,85.955864 C 146.05207,85.955864 145.48417,86.285459 145.1299,86.75692 C 145.60992,86.507431 146.13591,86.918965 146.72815,86.918965 L 178.18881,86.918965 C 178.78105,86.918965 179.30637,86.507431 179.78706,86.75692 C 179.43279,86.285459 178.86489,85.955864 178.18881,85.955864 L 146.72815,85.955864 L 146.72815,85.955864 z "
           style="fill:url(#linearGradient6323-717)" />
        <path
           transform="translate(-0.9391258,3.2869433)"
           id="path152"
           d="M 163.40296,155.70644 C 163.15619,155.91862 162.8141,156.03664 162.45848,156.03664 C 162.10286,156.03664 161.76144,155.91862 161.514,155.70644 L 155.05812,150.20483 L 161.514,156.26656 C 161.76144,156.49893 162.10219,156.6304 162.4578,156.6304 C 162.81342,156.6304 163.15484,156.49893 163.40161,156.26656 L 169.85614,150.20606 L 163.40296,155.70644 z "
           style="fill:#ff00ff" />
      </g>
      <g
         id="g6325">
        <path
           id="KGet_title"
           d="M 69.384984,78.225839 L 73.195698,78.225839 L 73.195698,89.861641 L 85.835197,78.225839 L 90.740074,78.225839 L 76.761168,91.060255 L 91.739913,105.75714 L 86.721848,105.75714 L 73.195698,92.498595 L 73.195698,105.75714 L 69.384984,105.75714 L 69.384984,78.225839 M 113.94392,101.82937 L 113.94392,94.434825 L 107.71851,94.434825 L 107.71851,91.373741 L 117.71691,91.373741 L 117.71691,103.19395 C 116.24542,104.21431 114.62304,104.9888 112.84977,105.51742 C 111.07643,106.03374 109.18366,106.29191 107.17142,106.29191 C 102.7696,106.29191 99.32361,105.03797 96.833436,102.53009 C 94.355847,100.00993 93.117051,96.506286 93.117051,92.019151 C 93.117051,87.519743 94.355847,84.016099 96.833436,81.508203 C 99.32361,78.988057 102.7696,77.727981 107.17142,77.727949 C 109.00759,77.727981 110.74945,77.949261 112.39701,78.391797 C 114.0571,78.834389 115.58516,79.485947 116.98117,80.346465 L 116.98117,84.311123 C 115.57258,83.14326 114.07596,82.264273 112.49132,81.674161 C 110.90666,81.084105 109.24026,80.789057 107.49212,80.789033 C 104.04612,80.789057 101.45534,81.729507 99.719772,83.610391 C 97.996771,85.491315 97.135274,88.294235 97.135282,92.019151 C 97.135274,95.731794 97.996771,98.528565 99.719772,100.40947 C 101.45534,102.29037 104.04612,103.23083 107.49212,103.23082 C 108.83781,103.23083 110.03887,103.12019 111.09532,102.8989 C 112.15174,102.66533 113.10127,102.30882 113.94392,101.82937 M 142.61861,94.582345 L 142.61861,96.241965 L 126.65889,96.241965 C 126.8098,98.577739 127.52666,100.3603 128.80949,101.58964 C 130.10487,102.8067 131.90333,103.41523 134.20485,103.41523 C 135.53796,103.41523 136.82707,103.25542 138.07217,102.93578 C 139.32981,102.61616 140.57489,102.1367 141.80742,101.49744 L 141.80742,104.70605 C 140.56232,105.22238 139.28579,105.61576 137.97784,105.88622 C 136.66986,106.15668 135.34302,106.29191 133.99735,106.29191 C 130.6268,106.29191 127.95427,105.33301 125.97975,103.41523 C 124.0178,101.49744 123.03682,98.903522 123.03682,95.633439 C 123.03682,92.252736 123.96749,89.572757 125.82883,87.593487 C 127.70274,85.601959 130.22435,84.606187 133.39366,84.606163 C 136.23596,84.606187 138.48089,85.503612 140.12845,87.298439 C 141.78853,89.081016 142.61859,91.508979 142.61861,94.582345 M 139.14746,93.586573 C 139.12229,91.730267 138.58779,90.248902 137.54395,89.142471 C 136.51266,88.036071 135.1418,87.482867 133.4314,87.482843 C 131.49459,87.482867 129.94138,88.017633 128.77176,89.087149 C 127.6147,90.156697 126.94814,91.662648 126.77207,93.605011 L 139.14746,93.586573 M 151.74924,79.240049 L 151.74924,85.104053 L 158.89905,85.104053 L 158.89905,87.741007 L 151.74924,87.741007 L 151.74924,98.952687 C 151.74924,100.6369 151.98189,101.71873 152.44724,102.19817 C 152.92514,102.67762 153.88725,102.91735 155.33357,102.91734 L 158.89905,102.91734 L 158.89905,105.75714 L 155.33357,105.75714 C 152.65474,105.75714 150.80598,105.27155 149.78728,104.30036 C 148.76857,103.31688 148.25922,101.53433 148.25922,98.952687 L 148.25922,87.741007 L 145.71246,87.741007 L 145.71246,85.104053 L 148.25922,85.104053 L 148.25922,79.240049 L 151.74924,79.240049"
           style="font-size:47.41463089px;font-style:normal;font-weight:normal;fill:#f600f6;fill-opacity:1;stroke:none;stroke-width:1px;stroke-linecap:butt;stroke-linejoin:miter;stroke-opacity:1;font-family:Bitstream Vera Sans" />
        <path
           sodipodi:nodetypes="cssssssssssscsssssssssssssssssssssscssssssssssssssscssssscssssssssssssssssss"
           id="path5262"
           d="M 63.245406,70.451101 C 64.359396,70.451101 66.587376,66.880611 67.701376,70.451101 C 68.815366,74.021601 64.006436,84.733081 67.701376,84.733081 C 71.396296,84.733081 77.352306,74.021601 82.481086,70.451101 C 87.609866,66.880611 90.869126,66.512811 88.216496,70.451101 C 85.563866,74.389401 71.578286,77.756191 71.870576,86.204281 C 72.162856,94.652381 86.473806,99.733691 89.385636,104.24349 C 92.297456,108.75329 88.938926,108.31194 83.517866,104.24349 C 78.096796,100.17505 71.655496,87.969731 67.701376,87.969731 C 63.747246,87.969731 68.815366,100.17505 67.701376,104.24349 C 66.587376,108.31194 64.359396,112.6916 63.245406,104.24349 C 62.131406,95.795401 63.245406,78.899201 63.245406,70.451101 M 115.34938,99.422481 C 115.34938,97.153431 117.16926,92.615341 115.34938,90.346291 C 113.5295,88.077241 109.88972,91.285591 108.06984,90.346291 C 106.24995,89.406981 105.14699,87.528371 108.06984,86.589061 C 110.99269,85.649761 116.83839,82.961981 119.76124,86.589061 C 122.68409,90.216141 121.33298,98.301161 119.76124,101.09739 C 118.1895,103.89362 116.14354,103.30797 114.06996,103.94926 C 111.99639,104.59055 111.18018,104.89988 107.43011,104.89988 C 103.68004,104.89988 98.246096,103.36831 95.341626,100.28256 C 92.437156,97.196811 90.995946,92.896371 90.995946,87.381251 C 90.995946,81.866131 92.437156,77.565681 95.341626,74.479931 C 98.246096,71.394181 103.78299,69.839991 107.43011,69.839991 C 111.07723,69.839991 111.60668,70.111591 113.54053,70.654801 C 115.4744,71.198011 117.41468,71.617701 118.90092,73.054001 C 120.38716,74.490291 120.38074,78.433311 118.90092,77.920281 C 117.4211,77.407261 115.50379,75.407911 113.65081,74.683631 C 111.79784,73.959351 110.84194,73.597211 107.80511,73.597211 C 104.76829,73.597211 100.73879,74.751541 98.716686,77.060191 C 96.694586,79.368851 95.694576,82.816761 95.694576,87.381251 C 95.694576,91.945741 96.694586,95.371021 98.716686,97.679671 C 100.73879,99.988321 105.00359,101.14265 107.80511,101.14265 C 110.60663,101.14265 110.78311,101.01439 112.01843,100.73524 C 113.25374,100.45609 114.36404,100.01097 115.34938,99.422481 M 148.87947,90.527361 C 148.87947,91.036621 153.54501,92.055141 148.87947,92.564401 C 144.21394,93.073661 132.14752,90.310441 130.21734,92.564401 C 128.28714,94.818371 131.22471,97.626861 132.73209,99.128231 C 134.23948,100.62961 136.91599,101.36899 139.04103,101.36899 C 141.16606,101.36899 142.09994,101.17283 143.5632,100.78051 C 145.02646,100.38819 146.66435,99.135781 147.93093,99.015071 C 149.19751,98.894351 149.21865,101.96314 147.93093,102.95337 C 146.6432,103.9436 144.98233,104.06996 143.45289,104.40193 C 141.92345,104.7339 141.5558,104.89988 138.7984,104.89988 C 136.041,104.89988 131.72472,103.72292 129.4232,101.36899 C 127.1217,99.015081 125.98195,95.899131 125.98195,91.817491 C 125.98195,87.735841 127.06287,84.386031 129.24673,81.949111 C 131.4306,79.512201 134.57771,78.282421 138.09249,78.282421 C 141.60725,78.282421 144.0338,79.391481 145.96766,81.586971 C 147.90152,83.782451 148.87945,86.755051 148.87947,90.527361 M 144.82056,89.305131 C 144.79113,87.026671 144.15878,85.208401 142.94554,83.850361 C 141.73228,82.492331 140.269,81.813311 138.13662,81.813311 C 136.00423,81.813311 134.0483,82.469701 132.68797,83.782461 C 131.32765,85.095221 128.93605,87.445381 130.34968,89.327761 C 131.76332,91.210141 141.20284,89.310791 144.82056,89.305131 M 159.55617,71.695961 C 159.55617,73.495361 157.46605,77.094151 159.55617,78.893541 C 161.64628,80.692931 165.82652,78.084381 167.91663,78.893541 C 170.00675,79.702701 170.00675,81.321021 167.91663,82.130181 C 165.82652,82.939341 161.64628,78.689831 159.55617,82.130181 C 157.46605,85.570531 159.45414,92.639851 159.55617,95.891591 C 159.65819,99.143331 159.82088,99.286671 160.37236,99.875151 C 160.92384,100.46363 161.95877,100.64754 163.74742,100.75787 C 165.53607,100.86821 166.87433,99.886471 167.91663,100.75787 C 168.95894,101.62928 168.95894,103.37209 167.91663,104.24349 C 166.87433,105.1149 166.64547,104.46701 163.74742,104.24349 C 160.84937,104.01998 158.4532,103.65501 157.26199,102.45542 C 156.0708,101.25581 155.69854,100.01663 155.47519,95.891591 C 155.25184,91.766561 156.21969,85.570531 155.47519,82.130181 C 154.73069,78.689831 153.24169,82.939341 152.4972,82.130181 C 151.7527,81.321021 151.7527,79.702701 152.4972,78.893541 C 153.24169,78.084381 154.73069,80.692931 155.47519,78.893541 C 156.21969,77.094151 154.45494,73.495361 155.47519,71.695961 C 156.49544,69.896571 158.53592,71.695961 159.55617,71.695961"
           style="font-size:47.41463089px;font-style:normal;font-weight:normal;opacity:1;fill:#f600f6;fill-opacity:0.11818183;stroke:none;stroke-width:1px;stroke-linecap:butt;stroke-linejoin:miter;stroke-opacity:1;font-family:Bitstream Vera Sans" />
      </g>
    </g>
  </g>
</svg>
